HIERARCHY
ROOT hip
{
  OFFSET 0 0 0
  CHANNELS 6 Xposition Yposition Zposition Zrotation Yrotation Xrotation
  JOINT abdomen
  {
    OFFSET 0 20.6881 -0.73152
    CHANNELS 3 Zrotation Xrotation Yrotation
    JOINT chest
    {
      OFFSET 0 11.7043 -0.48768
      CHANNELS 3 Zrotation Xrotation Yrotation
      JOINT neck
      {
        OFFSET 0 22.1894 -2.19456
        CHANNELS 3 Zrotation Xrotation Yrotation
        JOINT head
        {
          OFFSET -0.24384 7.07133 1.2192
          CHANNELS 3 Zrotation Xrotation Yrotation
          JOINT leftEye
          {
            OFFSET 4.14528 8.04674 8.04672
            CHANNELS 3 Zrotation Xrotation Yrotation
            End Site
            {
              OFFSET 1 0 0
            }
          }
          JOINT rightEye
          {
            OFFSET -3.6576 8.04674 8.04672
            CHANNELS 3 Zrotation Xrotation Yrotation
            End Site
            {
              OFFSET 1 0 0
            }
          }
        }
      }
      JOINT rCollar
      {
        OFFSET -2.68224 19.2634 -4.8768
        CHANNELS 3 Zrotation Xrotation Yrotation
        JOINT rShldr
        {
          OFFSET -8.77824 -1.95073 1.46304
          CHANNELS 3 Zrotation Xrotation Yrotation
          JOINT rForeArm
          {
            OFFSET -28.1742 -1.7115 0.48768
            CHANNELS 3 Zrotation Xrotation Yrotation
            JOINT rHand
            {
              OFFSET -22.5879 0.773209 7.07136
              CHANNELS 3 Zrotation Xrotation Yrotation
              JOINT rThumb1
              {
                OFFSET -1.2192 -0.487915 3.41376
                CHANNELS 3 Zrotation Xrotation Yrotation
                JOINT rThumb2
                {
                  OFFSET -3.37035 -0.52449 3.41376
                  CHANNELS 3 Zrotation Xrotation Yrotation
                  End Site
                  {
                    OFFSET -1.78271 -1.18214 1.43049
                  }
                }
              }
              JOINT rIndex1
              {
                OFFSET -7.75947 0.938293 5.60832
                CHANNELS 3 Zrotation Xrotation Yrotation
                JOINT rIndex2
                {
                  OFFSET -2.54057 -0.884171 1.56538
                  CHANNELS 3 Zrotation Xrotation Yrotation
                  End Site
                  {
                    OFFSET -1.62519 -0.234802 1.16502
                  }
                }
              }
              JOINT rMid1
              {
                OFFSET -8.24714 1.18213 3.41376
                CHANNELS 3 Zrotation Xrotation Yrotation
                JOINT rMid2
                {
                  OFFSET -3.10165 -0.590103 1.0647
                  CHANNELS 3 Zrotation Xrotation Yrotation
                  End Site
                  {
                    OFFSET -2.48547 -0.328903 0.83742
                  }
                }
              }
              JOINT rRing1
              {
                OFFSET -8.82822 0.546677 1.51678
                CHANNELS 3 Zrotation Xrotation Yrotation
                JOINT rRing2
                {
                  OFFSET -2.60934 -0.819778 -0.0198488
                  CHANNELS 3 Zrotation Xrotation Yrotation
                  End Site
                  {
                    OFFSET -2.33842 -0.294052 0.168128
                  }
                }
              }
              JOINT rPinky1
              {
                OFFSET -8.27202 -0.0477905 -0.4584
                CHANNELS 3 Zrotation Xrotation Yrotation
                JOINT rPinky2
                {
                  OFFSET -1.82734 -0.647385 -0.700984
                  CHANNELS 3 Zrotation Xrotation Yrotation
                  End Site
                  {
                    OFFSET -1.69225 -0.51767 -0.607171
                  }
                }
              }
            }
          }
        }
      }
      JOINT lCollar
      {
        OFFSET 2.68224 19.2634 -4.8768
        CHANNELS 3 Zrotation Xrotation Yrotation
        JOINT lShldr
        {
          OFFSET 8.77824 -1.95073 1.46304
          CHANNELS 3 Zrotation Xrotation Yrotation
          JOINT lForeArm
          {
            OFFSET 28.1742 -1.7115 0.48768
            CHANNELS 3 Zrotation Xrotation Yrotation
            JOINT lHand
            {
              OFFSET 22.5879 0.773209 7.07136
              CHANNELS 3 Zrotation Xrotation Yrotation
              JOINT lThumb1
              {
                OFFSET 1.2192 -0.487915 3.41376
                CHANNELS 3 Zrotation Xrotation Yrotation
                JOINT lThumb2
                {
                  OFFSET 3.37035 -0.52449 3.41376
                  CHANNELS 3 Zrotation Xrotation Yrotation
                  End Site
                  {
                    OFFSET 1.78271 -1.18214 1.43049
                  }
                }
              }
              JOINT lIndex1
              {
                OFFSET 7.75947 0.938293 5.60832
                CHANNELS 3 Zrotation Xrotation Yrotation
                JOINT lIndex2
                {
                  OFFSET 2.54057 -0.884171 1.56538
                  CHANNELS 3 Zrotation Xrotation Yrotation
                  End Site
                  {
                    OFFSET 1.62519 -0.234802 1.16502
                  }
                }
              }
              JOINT lMid1
              {
                OFFSET 8.24714 1.18213 3.41376
                CHANNELS 3 Zrotation Xrotation Yrotation
                JOINT lMid2
                {
                  OFFSET 3.10165 -0.590103 1.0647
                  CHANNELS 3 Zrotation Xrotation Yrotation
                  End Site
                  {
                    OFFSET 2.48547 -0.328903 0.83742
                  }
                }
              }
              JOINT lRing1
              {
                OFFSET 8.82822 0.546677 1.51678
                CHANNELS 3 Zrotation Xrotation Yrotation
                JOINT lRing2
                {
                  OFFSET 2.60934 -0.819778 -0.0198488
                  CHANNELS 3 Zrotation Xrotation Yrotation
                  End Site
                  {
                    OFFSET 2.33842 -0.294052 0.168128
                  }
                }
              }
              JOINT lPinky1
              {
                OFFSET 8.27202 -0.0477905 -0.4584
                CHANNELS 3 Zrotation Xrotation Yrotation
                JOINT lPinky2
                {
                  OFFSET 1.82734 -0.647385 -0.700984
                  CHANNELS 3 Zrotation Xrotation Yrotation
                  End Site
                  {
                    OFFSET 1.69225 -0.51767 -0.607171
                  }
                }
              }
            }
          }
        }
      }
    }
  }
  JOINT rButtock
  {
    OFFSET -8.77824 4.35084 1.2192
    CHANNELS 3 Zrotation Xrotation Yrotation
    JOINT rThigh
    {
      OFFSET 0 -1.70687 -2.19456
      CHANNELS 3 Zrotation Xrotation Yrotation
      JOINT rShin
      {
        OFFSET 0 -36.8199 0.73152
        CHANNELS 3 Zrotation Xrotation Yrotation
        JOINT rFoot
        {
          OFFSET 0.73152 -45.1104 -5.12064
          CHANNELS 3 Zrotation Xrotation Yrotation
          End Site
          {
            OFFSET -1.1221 -3.69964 12.103
          }
        }
      }
    }
  }
  JOINT lButtock
  {
    OFFSET 8.77824 4.35084 1.2192
    CHANNELS 3 Zrotation Xrotation Yrotation
    JOINT lThigh
    {
      OFFSET 0 -1.70687 -2.19456
      CHANNELS 3 Zrotation Xrotation Yrotation
      JOINT lShin
      {
        OFFSET 0 -36.8199 0.73152
        CHANNELS 3 Zrotation Xrotation Yrotation
        JOINT lFoot
        {
          OFFSET -0.73152 -45.1104 -5.12064
          CHANNELS 3 Zrotation Xrotation Yrotation
          End Site
          {
            OFFSET 1.1221 -3.69964 12.103
          }
        }
      }
    }
  }
}
MOTION
Frames:	4
Frame Time:	0.03333
-10.859800018370152 61.0447998046875 50.32739990204573 -4.58260003477335 69.44339990615845 2.16729998588562 5.9312499314546585 28.431799113750458 -5.392270088195801 4.560939855873585 -13.411100059747696 -0.20269099390134215 -5.209690108895302 9.466569721698761 -3.2090599089860916 8.935839682817459 -24.73610132932663 -3.8300898671150208 0.0 0.0 0.0 0.0 0.0 0.0 0.0 0.0 1.2789769243681803e-12 32.26159930229187 8.667290210723877 20.15140011906624 -14.69359964132309 -7.255229875445366 27.84099966287613 -0.68316500633955 22.463999390602112 3.3400801196694374 -2.524700448702788e-09 -5.3435655900102574e-09 4.732214620162267e-10 -4.3510794967005495e-09 -9.239329301635735e-09 8.684253316459944e-10 -2.524700448702788e-09 -5.3435655900102574e-09 4.732214620162267e-10 7.7309102565050125 5.474880114197731 0.41731400415301323 -2.524700448702788e-09 -5.3435655900102574e-09 4.732214620162267e-10 2.905540131032467 0.9651830233633518 0.102901995414868 -2.524700448702788e-09 -5.3435655900102574e-09 4.732214620162267e-10 10.27859978377819 0.7318009994924068 0.025912300043273717 -2.524700448702788e-09 -5.3435655900102574e-09 4.732214620162267e-10 2.221670038998127 -0.733487019315362 -0.2089200052432716 0.0 0.0 1.2789769243681803e-12 4.349829889833927 34.123999178409576 -100.94199657440186 24.409799873828888 -48.8629013299942 -101.96599960327148 2.1654400415718555 -37.88439989089966 6.283330097794533 5.4075144362286665e-09 -9.247003163181944e-09 3.0337332646013238e-09 9.254677024728153e-09 -1.5938610431476263e-08 5.384492851590039e-09 5.4075144362286665e-09 -9.247003163181944e-09 3.0337332646013238e-09 -7.7309102565050125 5.474880114197731 -0.41731400415301323 5.4075144362286665e-09 -9.247003163181944e-09 3.0337332646013238e-09 -2.905540131032467 0.9651830233633518 -0.102901995414868 5.4075144362286665e-09 -9.247003163181944e-09 3.0337332646013238e-09 -10.27859978377819 0.7318009994924068 -0.025912300043273717 5.4075144362286665e-09 -9.247003163181944e-09 3.0337332646013238e-09 -2.221670038998127 -0.733487019315362 0.2089200052432716 0.0 0.0 0.0 -65.76229870319366 -55.620399713516235 -73.00180077552795 -3.5553699731826782 76.1914998292923 3.6750300228595734 -2.7249699644744396 4.186600036919117 -25.043600499629974 0.0 0.0 0.0 42.527700662612915 -36.44089937210083 32.14019984006882 3.728799931704998 79.44759964942932 -5.846610143780708 12.00250044465065 -16.58849984407425 25.32469868659973
-11.616700030863285 61.62889862060547 50.23089990019798 -7.4139998853206635 73.47709894180298 -1.354499962180853 7.0224496722221375 29.280600249767303 -3.2174300774931908 3.154890015721321 -13.699500560760498 0.31485100043937564 -3.23403999209404 9.883289784193039 -1.0004499647766352 7.646320089697838 -26.21809959411621 0.17123599536716938 0.0 0.0 0.0 0.0 0.0 0.0 0.0 -2.5579538487363607e-12 1.2789769243681803e-12 32.06790089607239 18.46169963479042 17.84549966454506 -18.31349954009056 -11.112200170755386 34.5236000418663 -0.40210801642388105 18.02709996700287 2.617419920861721 -1.9952040020143613e-09 -5.867946129001211e-09 4.374101081339177e-10 -3.432774065004196e-09 -1.0155076779483352e-08 7.980816008057445e-10 -1.9952040020143613e-09 -5.867946129001211e-09 4.374101081339177e-10 7.7309102565050125 5.474880114197731 0.41731400415301323 -1.9952040020143613e-09 -5.867946129001211e-09 4.374101081339177e-10 2.905540131032467 0.9651830233633518 0.102901995414868 -1.9952040020143613e-09 -5.867946129001211e-09 4.374101081339177e-10 10.27859978377819 0.7318009994924068 0.025912300043273717 -1.9952040020143613e-09 -5.867946129001211e-09 4.374101081339177e-10 2.221670038998127 -0.733487019315362 -0.2089200052432716 0.0 -2.5579538487363607e-12 1.2789769243681803e-12 5.53637009114027 26.40900045633316 -105.38400292396545 25.1664000749588 -47.74999916553497 -99.35559868812561 1.4629700034856796 -32.310799062252045 5.092860125005245 6.389768714143429e-09 -1.1694964996422641e-08 2.6756197257782333e-09 1.0965948149532778e-08 -2.0120864974160213e-08 4.801279374078149e-09 6.389768714143429e-09 -1.1694964996422641e-08 2.6756197257782333e-09 -7.7309102565050125 5.474880114197731 -0.41731400415301323 6.389768714143429e-09 -1.1694964996422641e-08 2.6756197257782333e-09 -2.905540131032467 0.9651830233633518 -0.102901995414868 6.389768714143429e-09 -1.1694964996422641e-08 2.6756197257782333e-09 -10.27859978377819 0.7318009994924068 -0.025912300043273717 6.389768714143429e-09 -1.1694964996422641e-08 2.6756197257782333e-09 -2.221670038998127 -0.733487019315362 0.2089200052432716 0.0 0.0 0.0 -61.20280086994171 -56.20249807834625 -66.64369940757751 -3.1490900740027428 74.80709910392761 3.262310139834881 -2.8961000964045525 3.346000090241432 -22.893201112747192 0.0 0.0 0.0 42.949199080467224 -38.71579885482788 29.88540083169937 3.5193800926208496 78.7319004535675 -5.450950115919113 10.76730027794838 -16.097899675369263 23.324401080608368
-12.132100023329258 62.29199981689453 50.20999990031123 -8.616499900817871 77.06549763679504 -2.5082000344991684 5.342680066823959 28.911600708961487 -0.1428920030593872 2.0252800360322 -14.062600582838058 0.8751820027828217 -0.057984801242128015 10.434100180864334 1.2121500167995691 4.202059954404831 -25.85680067539215 3.4328798577189445 0.0 0.0 0.0 0.0 0.0 0.0 0.0 0.0 0.0 34.24169987440109 24.83700066804886 17.2168006002903 -21.43429934978485 -14.96599942445755 42.411099672317505 -0.16184499487280846 11.725700497627258 1.6678999923169613 5.525180313270539e-10 -1.2150280781497713e-09 -4.808953235624358e-10 9.592326932761353e-10 -2.1026380636612885e-09 -8.249401162174763e-10 5.525180313270539e-10 -1.2150280781497713e-09 -4.808953235624358e-10 7.7309102565050125 5.474880114197731 0.41731400415301323 5.525180313270539e-10 -1.2150280781497713e-09 -4.808953235624358e-10 2.905540131032467 0.9651830233633518 0.102901995414868 5.525180313270539e-10 -1.2150280781497713e-09 -4.808953235624358e-10 10.27859978377819 0.7318009994924068 0.025912300043273717 5.525180313270539e-10 -1.2150280781497713e-09 -4.808953235624358e-10 2.221670038998127 -0.733487019315362 -0.2089200052432716 0.0 0.0 0.0 8.185230195522308 20.12980028986931 -111.01699590682983 25.84149867296219 -46.60449743270874 -96.79120302200317 0.886379973962903 -25.9264013171196 3.910519927740097 2.2151880330056883e-09 -3.2025582186179236e-09 1.6498802324349526e-10 3.821583050012123e-09 -5.537970082514221e-09 3.389288849575678e-10 2.2151880330056883e-09 -3.2025582186179236e-09 1.6498802324349526e-10 -7.7309102565050125 5.474880114197731 -0.41731400415301323 2.2151880330056883e-09 -3.2025582186179236e-09 1.6498802324349526e-10 -2.905540131032467 0.9651830233633518 -0.102901995414868 2.2151880330056883e-09 -3.2025582186179236e-09 1.6498802324349526e-10 -10.27859978377819 0.7318009994924068 -0.025912300043273717 2.2151880330056883e-09 -3.2025582186179236e-09 1.6498802324349526e-10 -2.221670038998127 -0.733487019315362 0.2089200052432716 0.0 0.0 0.0 -58.29369843006134 -57.554497718811035 -60.49639821052551 -2.764379996806383 73.29309940338135 2.906319983303547 -2.7460900135338306 1.1334199737757444 -16.058599948883057 0.0 0.0 0.0 42.09039866924286 -40.64349979162216 28.769899606704712 3.0483100935816765 77.12670028209686 -4.805860072374344 9.612640142440796 -15.635500252246857 21.370799392461777
-12.47230003029108 62.9099006652832 50.21729990048334 -7.2060998529195786 80.51909923553467 -1.0017000418156385 3.4650499373674393 28.35429936647415 1.801349949091673 1.764139998704195 -14.257400035858154 1.2198099866509438 1.1417899746447802 10.870199874043465 3.5091400891542435 2.5590500235557556 -25.57079941034317 7.480349689722061 0.0 0.0 0.0 0.0 0.0 0.0 0.0 0.0 0.0 36.05879992246628 30.91839998960495 18.018700629472733 -24.291399121284485 -19.671799689531326 50.14190196990967 -0.04686970089096576 5.993469804525375 0.8471540082246065 1.4836132322670892e-10 1.5654677554266527e-09 1.020623585645808e-09 2.532374310248997e-10 2.7114310796605423e-09 1.7547563402331434e-09 1.4836132322670892e-10 1.5654677554266527e-09 1.020623585645808e-09 7.7309102565050125 5.474880114197731 0.41731400415301323 1.4836132322670892e-10 1.5654677554266527e-09 1.020623585645808e-09 2.905540131032467 0.9651830233633518 0.102901995414868 1.4836132322670892e-10 1.5654677554266527e-09 1.020623585645808e-09 10.27859978377819 0.7318009994924068 0.025912300043273717 1.4836132322670892e-10 1.5654677554266527e-09 1.020623585645808e-09 2.221670038998127 -0.733487019315362 -0.2089200052432716 0.0 0.0 0.0 9.517199769616127 14.479099363088608 -113.7779974937439 26.143099665641785 -45.953198075294495 -95.50539493560791 0.8312299847602844 -24.96089994907379 3.751540035009384 -4.04156708100345e-10 6.139089236967266e-10 1.7394086171407253e-10 -6.983214007050265e-10 1.0743406164692715e-09 2.8393287720973603e-10 -4.04156708100345e-10 6.139089236967266e-10 1.7394086171407253e-10 -7.7309102565050125 5.474880114197731 -0.41731400415301323 -4.04156708100345e-10 6.139089236967266e-10 1.7394086171407253e-10 -2.905540131032467 0.9651830233633518 -0.102901995414868 -4.04156708100345e-10 6.139089236967266e-10 1.7394086171407253e-10 -10.27859978377819 0.7318009994924068 -0.025912300043273717 -4.04156708100345e-10 6.139089236967266e-10 1.7394086171407253e-10 -2.221670038998127 -0.733487019315362 0.2089200052432716 0.0 0.0 0.0 -55.00100255012512 -58.6299991607666 -53.873299956321716 -2.5078000500798225 72.12070047855377 2.6825999468564987 -2.657809965312481 -1.5386500395834446 -11.781499832868576 0.0 0.0 0.0 41.25360041856766 -42.1846005320549 28.238199949264526 2.639659959822893 75.38619875907898 -4.2437200248241425 8.494189828634262 -15.326399803161621 19.26950052380562
